<?xml version="1.0" encoding="UTF-8"?>
<svg version="1.1" id="Layer_1" xmlns="http://www.w3.org/2000/svg" xmlns:xlink="http://www.w3.org/1999/xlink" x="0px" y="0px"
	 viewBox="0 0 1024 1024" style="enable-background:new 0 0 24 24;" xml:space="preserve">
    <defs>
        <linearGradient x1="50%" y1="0%" x2="50%" y2="97.0714415%" id="linearGradient-1">
            <stop stop-color="#3D9BD4" offset="0%"></stop>
            <stop stop-color="#1E60A6" offset="100%"></stop>
        </linearGradient>
    </defs>
    <g id="Icon-Artboard" stroke="none" stroke-width="1" fill="none" fill-rule="evenodd">
        <g id="BG" fill="url(#linearGradient-1)">
            <rect x="0" y="0" width="1024" height="1024"></rect>
        </g>
        <path d="M546.052662,620.238134 C546.052662,624.926292 547.927926,630.864626 546.052662,633.052433 C544.177399,635.24024 537.613977,633.052433 533.238363,633.052433 L171,633.052433 C171,622.113397 171,611.174361 171,600.235325 C171.20309,591.461312 175.776966,583.36907 183.189212,578.669797 C185.560422,576.723104 188.067098,574.947541 190.690265,573.356551 C207.858532,563.36955 225.969464,555.09924 244.760357,548.665584 L296.017554,531.163127 C303.876006,529.183864 309.075561,521.717836 308.206766,513.660669 C308.206766,505.534528 308.206766,497.720931 308.206766,489.907334 C308.471521,484.795997 306.797214,479.773075 303.518607,475.842859 C294.908337,464.862559 289.306988,451.828651 287.266325,438.025049 C286.752808,431.18529 284.950031,424.50441 281.953079,418.334784 C276.482006,408.701256 272.976362,398.078091 271.639131,387.080396 C270.391476,383.113105 270.391476,378.858475 271.639131,374.891184 C272.881768,370.497561 272.881768,365.84542 271.639131,361.451797 C271.639131,357.076183 271.639131,352.388024 271.639131,348.01241 C270.393296,340.143638 270.393296,332.127846 271.639131,324.259075 C276.412689,294.816872 298.311213,271.072967 327.271943,263.938105 C341.640356,260.171091 356.584384,259.111231 371.34063,260.812666 C401.456652,263.392927 427.383134,283.11166 437.912478,311.444775 C441.637826,322.396335 442.604,334.097786 440.725373,345.512059 C437.738809,355.716149 437.738809,366.562357 440.725373,376.766447 C441.026503,379.257732 441.026503,381.776216 440.725373,384.267501 C439.881931,395.15797 436.908628,405.776911 431.974144,415.521889 C428.781853,421.152017 426.562871,427.280634 425.410723,433.649434 C424.000335,448.215865 418.712021,462.138162 410.096072,473.967596 C405.829658,478.671532 403.486972,484.807137 403.532651,491.157509 C402.904604,500.001784 402.904604,508.879465 403.532651,517.72374 C403.627734,523.102086 406.782209,527.955123 411.658792,530.225495 C416.368,532.557394 421.286202,534.440961 426.348354,535.851285 C453.102145,544.683562 479.299165,555.120622 504.796869,567.105673 C514.595285,571.451162 523.745723,577.130744 531.988187,583.983043 C536.890447,588.427096 539.909225,594.576459 540.426872,601.172957 C543.552311,606.173659 544.177399,613.362168 546.052662,620.238134 Z" id="Shape" fill="#FFFFFF" fill-rule="nonzero"></path>
        <path d="M836.052662,739.238134 C836.052662,743.926292 837.927926,749.864626 836.052662,752.052433 C834.177399,754.24024 827.613977,752.052433 823.238363,752.052433 L461,752.052433 C461,741.113397 461,730.174361 461,719.235325 C461.20309,710.461312 465.776966,702.36907 473.189212,697.669797 C475.560422,695.723104 478.067098,693.947541 480.690265,692.356551 C497.858532,682.36955 515.969464,674.09924 534.760357,667.665584 L586.017554,650.163127 C593.876006,648.183864 599.075561,640.717836 598.206766,632.660669 C598.206766,624.534528 598.206766,616.720931 598.206766,608.907334 C598.471521,603.795997 596.797214,598.773075 593.518607,594.842859 C584.908337,583.862559 579.306988,570.828651 577.266325,557.025049 C576.752808,550.18529 574.950031,543.50441 571.953079,537.334784 C566.482006,527.701256 562.976362,517.078091 561.639131,506.080396 C560.391476,502.113105 560.391476,497.858475 561.639131,493.891184 C562.881768,489.497561 562.881768,484.84542 561.639131,480.451797 C561.639131,476.076183 561.639131,471.388024 561.639131,467.01241 C560.393296,459.143638 560.393296,451.127846 561.639131,443.259075 C566.412689,413.816872 588.311213,390.072967 617.271943,382.938105 C631.640356,379.171091 646.584384,378.111231 661.34063,379.812666 C691.456652,382.392927 717.383134,402.11166 727.912478,430.444775 C731.637826,441.396335 732.604,453.097786 730.725373,464.512059 C727.738809,474.716149 727.738809,485.562357 730.725373,495.766447 C731.026503,498.257732 731.026503,500.776216 730.725373,503.267501 C729.881931,514.15797 726.908628,524.776911 721.974144,534.521889 C718.781853,540.152017 716.562871,546.280634 715.410723,552.649434 C714.000335,567.215865 708.712021,581.138162 700.096072,592.967596 C695.829658,597.671532 693.486972,603.807137 693.532651,610.157509 C692.904604,619.001784 692.904604,627.879465 693.532651,636.72374 C693.627734,642.102086 696.782209,646.955123 701.658792,649.225495 C706.368,651.557394 711.286202,653.440961 716.348354,654.851285 C743.102145,663.683562 769.299165,674.120622 794.796869,686.105673 C804.595285,690.451162 813.745723,696.130744 821.988187,702.983043 C826.890447,707.427096 829.909225,713.576459 830.426872,720.172957 C833.552311,725.173659 834.177399,732.362168 836.052662,739.238134 Z" id="Shape" fill="#FFFFFF" fill-rule="nonzero"></path>
    </g>
</svg>
